<svg xmlns="http://www.w3.org/2000/svg" width="960" height="540" viewBox="0 0 960 540" fill="none">
  <!-- Faint drifting bet-slip / ticket motif: rounded slip + dashed perforation,
       ticket ear-notches at the tear line, a few pick rows, and a check + odds stub. -->
  <g opacity=".24" stroke-linecap="round" stroke-linejoin="round" fill="none">
    <!-- teal -->
    <g transform="translate(64 64) rotate(-11)">
      <rect width="148" height="66" rx="11" fill="#0f242b" stroke="#35c7bd" stroke-width="2"/>
      <line x1="104" y1="6" x2="104" y2="60" stroke="#35c7bd" stroke-width="2" stroke-dasharray="3 5"/>
      <path d="M99 0a5 5 0 0 0 10 0M99 66a5 5 0 0 1 10 0" stroke="#35c7bd" stroke-width="2"/>
      <path d="M16 18h54M16 32h70M16 46h36" stroke="#9df4ec" stroke-width="3"/>
      <path d="M115 23l6 7 13-15" stroke="#ffd16d" stroke-width="3"/>
      <path d="M115 46h20" stroke="#9df4ec" stroke-width="3"/>
    </g>
    <!-- gold -->
    <g transform="translate(700 44) rotate(10)">
      <rect width="148" height="66" rx="11" fill="#161c1c" stroke="#d6973a" stroke-width="2"/>
      <line x1="104" y1="6" x2="104" y2="60" stroke="#d6973a" stroke-width="2" stroke-dasharray="3 5"/>
      <path d="M99 0a5 5 0 0 0 10 0M99 66a5 5 0 0 1 10 0" stroke="#d6973a" stroke-width="2"/>
      <path d="M16 18h54M16 32h70M16 46h36" stroke="#ffd16d" stroke-width="3"/>
      <path d="M115 23l6 7 13-15" stroke="#35c7bd" stroke-width="3"/>
      <path d="M115 46h20" stroke="#ffd16d" stroke-width="3"/>
    </g>
    <!-- red, slightly smaller -->
    <g transform="translate(452 98) rotate(-5) scale(0.84)">
      <rect width="148" height="66" rx="11" fill="#102027" stroke="#ff6b7a" stroke-width="2"/>
      <line x1="104" y1="6" x2="104" y2="60" stroke="#ff6b7a" stroke-width="2" stroke-dasharray="3 5"/>
      <path d="M99 0a5 5 0 0 0 10 0M99 66a5 5 0 0 1 10 0" stroke="#ff6b7a" stroke-width="2"/>
      <path d="M16 18h54M16 32h70M16 46h36" stroke="#ff9aa5" stroke-width="3"/>
      <path d="M115 23l6 7 13-15" stroke="#ffd16d" stroke-width="3"/>
      <path d="M115 46h20" stroke="#ff9aa5" stroke-width="3"/>
    </g>
    <!-- teal -->
    <g transform="translate(88 356) rotate(9)">
      <rect width="148" height="66" rx="11" fill="#10242a" stroke="#35c7bd" stroke-width="2"/>
      <line x1="104" y1="6" x2="104" y2="60" stroke="#35c7bd" stroke-width="2" stroke-dasharray="3 5"/>
      <path d="M99 0a5 5 0 0 0 10 0M99 66a5 5 0 0 1 10 0" stroke="#35c7bd" stroke-width="2"/>
      <path d="M16 18h54M16 32h70M16 46h36" stroke="#9df4ec" stroke-width="3"/>
      <path d="M115 23l6 7 13-15" stroke="#ffd16d" stroke-width="3"/>
      <path d="M115 46h20" stroke="#9df4ec" stroke-width="3"/>
    </g>
    <!-- teal, slightly larger -->
    <g transform="translate(648 326) rotate(-9) scale(1.06)">
      <rect width="148" height="66" rx="11" fill="#181b1b" stroke="#35c7bd" stroke-width="2"/>
      <line x1="104" y1="6" x2="104" y2="60" stroke="#35c7bd" stroke-width="2" stroke-dasharray="3 5"/>
      <path d="M99 0a5 5 0 0 0 10 0M99 66a5 5 0 0 1 10 0" stroke="#35c7bd" stroke-width="2"/>
      <path d="M16 18h54M16 32h70M16 46h36" stroke="#9df4ec" stroke-width="3"/>
      <path d="M115 23l6 7 13-15" stroke="#ffd16d" stroke-width="3"/>
      <path d="M115 46h20" stroke="#9df4ec" stroke-width="3"/>
    </g>
    <!-- gold -->
    <g transform="translate(326 382) rotate(4)">
      <rect width="148" height="66" rx="11" fill="#111920" stroke="#d6973a" stroke-width="2"/>
      <line x1="104" y1="6" x2="104" y2="60" stroke="#d6973a" stroke-width="2" stroke-dasharray="3 5"/>
      <path d="M99 0a5 5 0 0 0 10 0M99 66a5 5 0 0 1 10 0" stroke="#d6973a" stroke-width="2"/>
      <path d="M16 18h54M16 32h70M16 46h36" stroke="#ffd16d" stroke-width="3"/>
      <path d="M115 23l6 7 13-15" stroke="#35c7bd" stroke-width="3"/>
      <path d="M115 46h20" stroke="#ffd16d" stroke-width="3"/>
    </g>
    <!-- gold, smaller -->
    <g transform="translate(256 206) rotate(-13) scale(0.82)">
      <rect width="148" height="66" rx="11" fill="#161c1c" stroke="#d6973a" stroke-width="2"/>
      <line x1="104" y1="6" x2="104" y2="60" stroke="#d6973a" stroke-width="2" stroke-dasharray="3 5"/>
      <path d="M99 0a5 5 0 0 0 10 0M99 66a5 5 0 0 1 10 0" stroke="#d6973a" stroke-width="2"/>
      <path d="M16 18h54M16 32h70M16 46h36" stroke="#ffd16d" stroke-width="3"/>
      <path d="M115 23l6 7 13-15" stroke="#35c7bd" stroke-width="3"/>
      <path d="M115 46h20" stroke="#ffd16d" stroke-width="3"/>
    </g>
    <!-- red -->
    <g transform="translate(770 200) rotate(12)">
      <rect width="148" height="66" rx="11" fill="#102027" stroke="#ff6b7a" stroke-width="2"/>
      <line x1="104" y1="6" x2="104" y2="60" stroke="#ff6b7a" stroke-width="2" stroke-dasharray="3 5"/>
      <path d="M99 0a5 5 0 0 0 10 0M99 66a5 5 0 0 1 10 0" stroke="#ff6b7a" stroke-width="2"/>
      <path d="M16 18h54M16 32h70M16 46h36" stroke="#ff9aa5" stroke-width="3"/>
      <path d="M115 23l6 7 13-15" stroke="#ffd16d" stroke-width="3"/>
      <path d="M115 46h20" stroke="#ff9aa5" stroke-width="3"/>
    </g>
  </g>
</svg>
