<svg xmlns="http://www.w3.org/2000/svg" viewBox="0 0 64 64" role="img" aria-label="Glossary"><defs><linearGradient id="ring" x1="20" y1="3" x2="44" y2="61"><stop stop-color="#5fe6da"/><stop offset="0.55" stop-color="#5f9dff"/><stop offset="1" stop-color="#a06bff"/></linearGradient><linearGradient id="gl" x1="22" y1="18" x2="44" y2="48"><stop stop-color="#83ece1"/><stop offset="1" stop-color="#34acce"/></linearGradient></defs><circle cx="32" cy="32" r="29" fill="#0a1622"/><circle cx="32" cy="32" r="29" fill="none" stroke="url(#ring)" stroke-width="3.6"/><path d="M32 22 C27 19 19.5 19 14.5 21 V41 C19.5 39 27 39 32 42 Z" fill="url(#gl)"/><path d="M32 22 C37 19 44.5 19 49.5 21 V41 C44.5 39 37 39 32 42 Z" fill="url(#gl)"/><path d="M18 25h9M18 30h9M18 35h7M37 25h9M37 30h9M37 35h7" stroke="#0a1622" stroke-width="1.5" stroke-linecap="round"/></svg>