<svg xmlns="http://www.w3.org/2000/svg" viewBox="0 0 24 24" role="img" aria-label="Glossary"><defs><linearGradient id="g" x1="2" y1="2" x2="22" y2="22"><stop stop-color="#7dd8cf"/><stop offset="1" stop-color="#9b8cff"/></linearGradient></defs><g fill="none" stroke="url(#g)" stroke-width="1.5" stroke-linecap="round" stroke-linejoin="round"><polyline points="12 2 14 3 16.5 3 17.5 5.5 20 6.5 20 9 17.5 10 16.5 12.5 14 12.5 12 14 10 12.5 7.5 12.5 6.5 10 4 9 4 6.5 6.5 5.5 7.5 3 10 3 12 2"/><path d="M12 3V13.5"/><path d="M6.5 6H9M6.5 8H8.5M6.5 10H8"/><path d="M15 6H17.5M15.5 8H17.5M16 10H17.5"/></g></svg>