<svg xmlns="http://www.w3.org/2000/svg" viewBox="0 0 64 64" role="img" aria-label="Settings"><defs><linearGradient id="ring" x1="20" y1="3" x2="44" y2="61"><stop stop-color="#5fe6da"/><stop offset="0.55" stop-color="#5f9dff"/><stop offset="1" stop-color="#a06bff"/></linearGradient><linearGradient id="gl" x1="22" y1="18" x2="44" y2="48"><stop stop-color="#83ece1"/><stop offset="1" stop-color="#34acce"/></linearGradient></defs><circle cx="32" cy="32" r="29" fill="#0a1622"/><circle cx="32" cy="32" r="29" fill="none" stroke="url(#ring)" stroke-width="3.6"/><g fill="url(#gl)"><circle cx="32" cy="32" r="10.5"/><rect x="30.3" y="16" width="3.4" height="6"/><rect x="30.3" y="42" width="3.4" height="6"/><rect x="16" y="30.3" width="6" height="3.4"/><rect x="42" y="30.3" width="6" height="3.4"/><rect x="20.2" y="21.6" width="3.4" height="6" transform="rotate(-45 21.9 24.6)"/><rect x="40.4" y="36.4" width="3.4" height="6" transform="rotate(-45 42.1 39.4)"/><rect x="40.4" y="21.6" width="3.4" height="6" transform="rotate(45 42.1 24.6)"/><rect x="20.2" y="36.4" width="3.4" height="6" transform="rotate(45 21.9 39.4)"/></g><circle cx="32" cy="32" r="4.5" fill="#0a1622"/></svg>