<svg xmlns="http://www.w3.org/2000/svg" viewBox="0 0 64 64" role="img" aria-label="Women player"><defs><linearGradient id="ring" x1="20" y1="3" x2="44" y2="61"><stop stop-color="#5fe6da"/><stop offset="0.55" stop-color="#5f9dff"/><stop offset="1" stop-color="#a06bff"/></linearGradient><linearGradient id="gl" x1="22" y1="18" x2="44" y2="48"><stop stop-color="#83ece1"/><stop offset="1" stop-color="#34acce"/></linearGradient></defs><circle cx="32" cy="32" r="29" fill="#0a1622"/><circle cx="32" cy="32" r="29" fill="none" stroke="url(#ring)" stroke-width="3.6"/><circle cx="35" cy="20" r="3.3" fill="url(#gl)"/><path d="M33.2 24.2 C30 25 27 27 24.5 29.5 L26.5 32 C29 30 31 28.6 32.6 28.2 L30.6 35 L27 43 L30.8 43 L34 36.5 L37 43 L40.8 43 L36.8 33.5 C38.2 31.5 39.6 31 41.6 31.6 L42.4 28 C39.6 27.2 37 27.8 35.2 29.4 Z" fill="url(#gl)"/><circle cx="22.5" cy="29" r="2.2" fill="none" stroke="url(#gl)" stroke-width="1.6"/></svg>